<svg width="24" height="24" viewBox="0 0 24 24" fill="none" xmlns="http://www.w3.org/2000/svg">
<g clip-path="url(#clip0_1_31)">
<path d="M16.4426 0C16.4972 0 16.5518 0 16.6095 0C16.7435 1.65515 16.1117 2.89188 15.3439 3.78748C14.5906 4.67689 13.5589 5.53951 11.8904 5.40862C11.7791 3.77717 12.4119 2.63217 13.1786 1.73863C13.8898 0.905903 15.1935 0.164897 16.4426 0Z" fill="black"/>
<path d="M21.4936 17.2276C21.4936 17.2441 21.4936 17.2585 21.4936 17.274C21.0246 18.6942 20.3558 19.9113 19.5395 21.0409C18.7944 22.0663 17.8813 23.4463 16.2509 23.4463C14.842 23.4463 13.9062 22.5404 12.4623 22.5157C10.935 22.4909 10.095 23.2732 8.69857 23.47C8.53883 23.47 8.37909 23.47 8.22243 23.47C7.19698 23.3216 6.3694 22.5095 5.7665 21.7777C3.9887 19.6155 2.6149 16.8226 2.35931 13.2484C2.35931 12.898 2.35931 12.5487 2.35931 12.1983C2.46753 9.6403 3.71044 7.56053 5.3625 6.5526C6.23439 6.01668 7.43299 5.56013 8.76762 5.76419C9.33961 5.85282 9.92396 6.04863 10.4362 6.24239C10.9216 6.42893 11.5286 6.75975 12.1037 6.74223C12.4933 6.73089 12.8808 6.52786 13.2734 6.38461C14.4236 5.96928 15.5511 5.49314 17.0372 5.71678C18.8233 5.9868 20.0909 6.78036 20.8742 8.00472C19.3633 8.96628 18.1688 10.4153 18.3729 12.8898C18.5543 15.1376 19.8611 16.4526 21.4936 17.2276Z" fill="black"/>
</g>
<defs>
<clipPath id="clip0_1_31">
<rect width="23.47" height="23.47" fill="white" transform="translate(0.190918)"/>
</clipPath>
</defs>
</svg>
