<svg width="29" height="29" viewBox="0 0 29 29" fill="none" xmlns="http://www.w3.org/2000/svg">
<path d="M25.8667 14.4983C25.8667 13.6486 25.7994 12.7944 25.6557 11.9585H14.1334V16.7716H20.7317C20.4579 18.324 19.5781 19.6972 18.2899 20.5698V23.6928H22.2264C24.5381 21.5159 25.8667 18.301 25.8667 14.4983Z" fill="#4285F4"/>
<path d="M14.1826 26.3004C17.3452 26.3004 20.0123 25.3006 21.9556 23.5749L18.1768 20.7539C17.1255 21.4425 15.7682 21.8325 14.1869 21.8325C11.1277 21.8325 8.53384 19.8454 7.60315 17.1738H3.70374V20.0818C5.69438 23.8943 9.74891 26.3004 14.1826 26.3004Z" fill="#34A853"/>
<path d="M7.61484 16.7897C7.11673 15.3472 7.11673 13.7852 7.61484 12.3426V9.35092H3.66495C1.97838 12.6329 1.97838 16.4995 3.66495 19.7814L7.61484 16.7897Z" fill="#FBBC04"/>
<path d="M14.1407 7.29814C15.8058 7.27326 17.4152 7.87861 18.6211 8.98981L21.9556 5.76817C19.8442 3.8526 17.0418 2.79945 14.1407 2.83262C9.72474 2.83262 5.68642 5.23745 3.70374 9.052L7.58327 11.9585C8.50595 9.28419 11.0937 7.29814 14.1407 7.29814Z" fill="#EA4335"/>
</svg>
